name C:\Gait_Data\34_Jeanne_DeNoyer\model_input_new\walk8.mot
datacolumns 5
datarows 81
range 0.000000 0.666667
units sec
endheader

time	hip_add_r	hip_flex_r	knee_flex_r	ankle_flex_r
0.000000	-9.719636	47.833415	11.621545	9.666568
0.008333	-10.084132	48.224323	10.716382	9.918118
0.016667	-10.411586	48.579741	10.000832	10.090119
0.025000	-10.682980	48.872475	9.593174	10.094546
0.033333	-10.892661	49.081631	9.525205	9.856132
0.041667	-11.047317	49.195436	9.770833	9.318056
0.050000	-11.162329	49.212529	10.283569	8.451087
0.058333	-11.257699	49.141534	11.023149	7.264987
0.066667	-11.354926	48.999184	11.968345	5.817538
0.075000	-11.475230	48.807275	13.118566	4.215549
0.083333	-11.638512	48.588513	14.486919	2.603707
0.091667	-11.861903	48.361342	16.086881	1.141205
0.100000	-12.157111	48.134466	17.915565	-0.028561
0.108333	-12.527045	47.902696	19.938474	-0.806171
0.116667	-12.963604	47.646356	22.081766	-1.153489
0.125000	-13.448863	47.335655	24.236598	-1.095528
0.133333	-13.960505	46.939234	26.276031	-0.707782
0.141667	-14.479649	46.433709	28.080047	-0.094070
0.150000	-14.996910	45.810280	29.560602	0.638374
0.158333	-15.512644	45.075972	30.677720	1.400290
0.166667	-16.030402	44.249846	31.440439	2.133747
0.175000	-16.547038	43.356742	31.892789	2.815352
0.183333	-17.045255	42.421527	32.092155	3.449861
0.191667	-17.492885	41.465477	32.090522	4.057245
0.200000	-17.849295	40.504758	31.925940	4.658319
0.208333	-18.075825	39.550137	31.624643	5.264468
0.216667	-18.145899	38.607273	31.208505	5.875039
0.225000	-18.051264	37.677427	30.701270	6.481728
0.233333	-17.802971	36.758663	30.129968	7.075632
0.241667	-17.427786	35.847384	29.522042	7.652137
0.250000	-16.961977	34.939752	28.900857	8.211474
0.258333	-16.444555	34.032516	28.281990	8.755912
0.266667	-15.911505	33.123063	27.671482	9.285992
0.275000	-15.391879	32.208919	27.066268	9.797941
0.283333	-14.905956	31.287179	26.456542	10.283425
0.291667	-14.465206	30.354212	25.829468	10.731662
0.300000	-14.073529	29.405750	25.173287	11.132960
0.308333	-13.729225	28.437218	24.480763	11.482114
0.316667	-13.427209	27.444165	23.751097	11.780265
0.325000	-13.161109	26.422703	22.990011	12.034605
0.333333	-12.924958	25.369974	22.208232	12.256286
0.341667	-12.714198	24.284606	21.418999	12.457498
0.350000	-12.525866	23.167111	20.635302	12.648650
0.358333	-12.358040	22.020104	19.867491	12.836328
0.366667	-12.208884	20.848339	19.121715	13.022341
0.375000	-12.075788	19.658586	18.399490	13.203997
0.383333	-11.955005	18.459450	17.698494	13.375539
0.391667	-11.841935	17.261134	17.014449	13.530438
0.400000	-11.731889	16.075112	16.343672	13.663938
0.408333	-11.620983	14.913638	15.685664	13.775128
0.416667	-11.506803	13.789048	15.045013	13.867821
0.425000	-11.388703	12.712912	14.432143	13.949899
0.433333	-11.267705	11.695083	13.862705	14.031229
0.441667	-11.146144	10.742719	13.355848	14.120747
0.450000	-11.027142	9.859372	12.931805	14.223602
0.458333	-10.913948	9.044278	12.609404	14.339148
0.466667	-10.809186	8.292109	12.404021	14.460340
0.475000	-10.714032	7.593416	12.326390	14.574572
0.483333	-10.627434	6.935905	12.382447	14.665633
0.491667	-10.545507	6.306401	12.574076	14.716121
0.500000	-10.461194	5.693133	12.900400	14.709523
0.508333	-10.364291	5.087837	13.359132	14.631253
0.516667	-10.241948	4.487270	13.947596	14.468215
0.525000	-10.079698	3.893947	14.663270	14.206931
0.533333	-9.862987	3.316151	15.504025	13.830668
0.541667	-9.578970	2.767410	16.468364	13.316317
0.550000	-9.218134	2.265652	17.555977	12.631914
0.558333	-8.775349	1.832118	18.768690	11.735655
0.566667	-8.250074	1.489993	20.111582	10.577203
0.575000	-7.645778	1.262689	21.593770	9.101926
0.583333	-6.968839	1.171753	23.228280	7.258562
0.591667	-6.227351	1.234625	25.030603	5.010606
0.600000	-5.430270	1.462731	27.015978	2.351265
0.608333	-4.587208	1.860617	29.195990	-0.679609
0.616667	-3.708994	2.426680	31.575496	-3.981301
0.625000	-2.808616	3.155483	34.151058	-7.389813
0.633333	-1.901539	4.040649	36.911737	-10.698463
0.641667	-1.003814	5.076193	39.842284	-13.706791
0.650000	-0.126748	6.253726	42.927088	-16.287682
0.658333	0.730755	7.554186	46.150556	-18.444188
0.666667	1.585663	8.937083	49.486675	-20.311946
